<?xml version="1.0" standalone="no"?>
<!DOCTYPE svg PUBLIC "-//W3C//DTD SVG 20010904//EN"
 "http://www.w3.org/TR/2001/REC-SVG-20010904/DTD/svg10.dtd">
<svg version="1.0" xmlns="http://www.w3.org/2000/svg"
 width="500.000000pt" height="713.000000pt" viewBox="0 0 500.000000 713.000000"
 preserveAspectRatio="xMidYMid meet">

<g transform="translate(0.000000,713.000000) scale(0.100000,-0.100000)"
fill="#000000" stroke="none">
<path d="M0 3565 l0 -3565 2500 0 2500 0 0 3565 0 3565 -2500 0 -2500 0 0
-3565z m2325 2730 c47 -5 68 -9 150 -29 108 -26 160 -36 195 -40 19 -2 69 -12
110 -21 41 -10 83 -18 93 -19 9 0 17 -3 17 -7 0 -4 30 -14 68 -23 139 -32 255
-78 312 -124 25 -20 25 -22 23 -159 -1 -76 -7 -184 -13 -239 -11 -93 -10 -107
9 -170 21 -71 21 -97 -1 -49 l-12 27 -9 -28 c-13 -46 -36 -190 -49 -309 -9
-75 -18 -116 -30 -130 -9 -11 -32 -42 -50 -69 -46 -68 -59 -70 -52 -10 3 27 9
53 12 59 17 25 26 283 21 605 l-1 105 -11 -57 c-16 -74 -23 -79 -37 -27 -24
90 -92 182 -167 224 -81 45 -148 59 -273 59 -117 -1 -165 -12 -380 -87 l-35
-13 -2 -98 c-1 -53 -11 -173 -23 -264 -21 -160 -22 -205 -25 -1082 -1 -503 -4
-925 -6 -936 -2 -12 -9 -20 -15 -17 -7 2 -17 -5 -23 -16 -15 -28 -14 -31 14
-31 l25 0 0 -243 0 -244 -82 -11 c-140 -19 -234 -25 -282 -18 l-47 7 6 62 c3
34 12 107 20 162 17 119 24 172 31 245 2 30 7 73 9 95 2 22 6 54 10 70 4 17 9
49 10 72 2 24 7 49 11 55 5 10 4 10 -6 2 -6 -7 -13 -25 -13 -40 -1 -16 -6 -32
-11 -36 -11 -8 -10 2 -36 -203 -12 -88 -30 -187 -40 -220 -29 -92 -50 -281
-50 -446 l0 -149 34 0 c18 0 39 7 47 16 7 8 21 13 31 11 10 -3 18 -1 18 4 0 5
3 8 8 7 13 -4 53 23 47 33 -9 14 -48 11 -39 -3 4 -7 -4 -3 -18 10 -13 12 -29
22 -35 22 -13 0 -40 40 -44 66 -4 24 20 94 32 94 5 0 9 7 9 15 0 8 6 15 13 16
6 0 87 2 178 3 92 2 172 6 178 10 15 10 14 -7 -1 -23 -10 -11 -10 -13 0 -7 9
6 12 -13 12 -78 0 -47 2 -86 4 -86 24 0 67 26 71 43 3 12 23 103 44 203 22 99
44 192 50 205 5 13 22 87 36 164 29 159 46 222 82 315 31 78 48 100 80 100 21
0 23 -2 10 -14 -8 -8 -17 -34 -21 -57 -4 -24 -10 -48 -15 -54 -10 -13 -26 -75
-40 -149 -6 -33 -20 -76 -30 -97 -11 -21 -16 -41 -11 -44 4 -3 17 18 28 47 11
29 32 80 47 113 15 33 29 71 31 85 8 43 13 50 34 50 24 0 25 -4 5 -34 -9 -13
-17 -42 -20 -64 -5 -53 -24 -108 -52 -151 -13 -19 -23 -44 -23 -57 0 -29 -25
-54 -53 -54 -16 0 -26 -11 -39 -43 -23 -53 -22 -63 1 -93 15 -19 18 -31 11
-55 -9 -30 -4 -59 9 -59 4 0 7 -31 7 -69 -1 -65 -2 -68 -20 -59 -16 9 -18 7
-13 -11 3 -11 1 -21 -4 -21 -5 0 -9 -13 -9 -30 0 -18 -9 -39 -22 -52 -14 -14
-18 -23 -10 -26 14 -4 16 -42 2 -42 -15 0 -18 68 -5 109 6 20 4 23 -9 18 -11
-4 -16 -1 -17 11 -1 13 -2 13 -6 -3 -3 -11 -12 -28 -20 -37 -12 -14 -13 -21
-4 -31 9 -11 8 -17 -2 -26 -11 -8 -12 -23 -5 -63 5 -29 9 -66 9 -83 0 -16 7
-38 16 -47 9 -10 12 -18 6 -18 -5 0 -7 -14 -5 -31 3 -23 1 -30 -7 -25 -7 5 -9
17 -5 28 3 12 2 18 -3 15 -5 -4 -10 0 -10 8 0 8 5 11 11 8 6 -3 5 0 -1 7 -7 8
-15 12 -17 9 -2 -2 -7 -81 -11 -174 -7 -200 -29 -422 -51 -520 -28 -123 -118
-408 -136 -430 -4 -5 -19 -23 -33 -38 -14 -15 -25 -33 -25 -38 0 -6 -4 -7 -10
-4 -5 3 -10 1 -10 -4 0 -6 -6 -11 -13 -11 -7 0 -19 -9 -27 -19 -7 -11 -18 -17
-23 -14 -5 3 -13 -1 -18 -8 -6 -10 -9 -10 -9 -2 0 7 -12 0 -27 -15 -22 -23
-33 -27 -53 -21 -40 11 -47 10 -53 -11 -3 -11 -12 -20 -21 -20 -9 0 -16 8 -16
20 0 11 5 20 11 20 5 0 7 5 4 10 -4 6 -2 17 5 25 9 10 8 19 -1 37 -7 12 -11
44 -10 69 1 40 -2 49 -19 54 -29 9 -42 -2 -29 -26 10 -19 9 -19 -10 -9 -14 7
-21 7 -21 0 0 -5 -7 -10 -15 -10 -8 0 -15 3 -15 8 0 13 35 107 42 112 10 8 68
140 68 156 0 8 5 14 10 14 6 0 10 7 10 16 0 8 -5 12 -11 8 -7 -4 -7 2 1 17 18
34 24 38 15 9 -7 -22 -6 -23 9 -11 15 12 23 61 11 61 -3 0 -17 -7 -30 -16 -14
-9 -25 -12 -25 -6 0 14 -43 11 -52 -3 -5 -6 -8 -5 -8 4 0 10 -6 8 -21 -7 -11
-12 -18 -26 -15 -31 3 -5 -1 -14 -9 -21 -10 -8 -12 -18 -6 -29 5 -9 5 -25 1
-36 -4 -11 -5 -44 -2 -72 3 -38 1 -53 -7 -53 -7 0 -11 -8 -9 -17 1 -10 -1 -24
-5 -30 -5 -8 -3 -13 3 -13 7 0 1 -13 -13 -30 -14 -16 -28 -43 -32 -60 -7 -31
-21 -48 -23 -27 -4 60 -4 87 2 114 6 27 5 32 -7 27 -12 -4 -15 3 -15 30 0 20
4 33 9 30 12 -7 11 7 -1 26 -5 8 -10 11 -10 5 0 -5 -4 -4 -9 3 -5 8 -6 33 -3
57 7 70 -16 130 -25 62 -1 -12 -5 -38 -7 -57 -6 -45 -14 -85 -16 -85 -2 0 -4
-9 -5 -20 -1 -11 -5 -30 -9 -42 -5 -14 -3 -23 3 -23 6 0 11 -5 11 -11 0 -16
-28 -41 -39 -35 -5 3 -12 -1 -15 -10 -4 -11 -1 -14 12 -10 13 4 18 0 19 -14 1
-11 -2 -18 -7 -15 -4 3 -11 -1 -13 -7 -4 -10 -8 -9 -16 2 -7 9 -11 11 -11 3 0
-7 7 -16 16 -21 14 -8 14 -11 2 -23 -8 -8 -15 -17 -15 -22 -4 -27 -10 -32 -24
-20 -9 7 -20 8 -29 3 -8 -5 -17 -7 -21 -4 -13 8 -24 -20 -24 -61 0 -27 -4 -39
-12 -38 -7 2 -13 -4 -13 -12 0 -14 -12 -19 -33 -16 -4 0 -7 -11 -7 -25 0 -22
-2 -24 -14 -14 -12 9 -17 7 -28 -9 -7 -12 -21 -21 -30 -21 -10 0 -18 -4 -18
-8 0 -14 -48 -33 -55 -22 -4 6 -14 10 -23 10 -31 1 -62 33 -56 58 4 12 12 21
18 20 6 -2 12 2 13 7 0 6 -4 9 -9 7 -6 -2 -8 4 -5 12 3 8 9 31 13 50 3 20 12
36 19 36 14 0 35 42 35 69 0 12 10 21 24 25 14 3 28 16 32 29 4 12 19 38 33
57 38 50 71 114 71 137 0 11 14 69 31 129 17 60 33 143 36 184 l6 75 -27 -30
c-35 -38 -96 -138 -96 -158 0 -9 -5 -19 -11 -23 -6 -3 -19 -26 -30 -51 -13
-31 -24 -43 -34 -40 -9 4 -12 1 -9 -8 6 -14 -44 -95 -79 -129 -19 -19 -19 -19
-13 5 7 23 7 23 -8 4 -8 -11 -20 -25 -25 -31 -5 -7 -7 -15 -4 -18 6 -6 -12
-10 -30 -7 -11 2 -9 -13 4 -26 7 -7 8 -17 2 -28 -9 -15 -12 -14 -34 9 -13 14
-27 26 -31 26 -7 0 -38 25 -92 73 -17 16 -25 26 -19 22 9 -4 11 -1 7 9 -3 9
-14 16 -23 17 -10 0 -11 2 -3 6 6 2 10 9 7 13 -11 18 14 20 31 3 17 -17 17
-17 12 7 -4 14 -2 34 2 45 7 16 9 17 9 3 1 -9 5 -20 11 -23 6 -3 7 1 4 9 -5
12 1 16 22 17 17 1 22 3 11 6 -17 4 -25 43 -9 43 5 0 14 16 22 35 7 19 21 37
31 40 10 3 20 21 23 40 4 19 11 35 16 35 6 0 10 7 10 15 0 8 9 19 20 25 29 16
65 54 68 75 7 36 39 95 71 129 11 12 21 26 21 30 0 5 22 38 48 75 56 76 86
123 107 168 8 17 19 34 25 38 13 8 13 25 1 25 -5 0 -13 -9 -16 -20 -3 -11 -12
-26 -19 -32 -6 -7 -27 -34 -45 -61 -18 -26 -40 -55 -50 -65 -10 -9 -51 -55
-91 -102 -41 -47 -105 -119 -144 -160 -126 -134 -214 -233 -272 -310 -32 -41
-63 -80 -68 -86 -6 -7 -20 -25 -31 -40 -11 -16 -41 -51 -66 -79 -25 -27 -61
-70 -80 -95 -58 -76 -72 -93 -129 -152 -30 -32 -60 -58 -65 -58 -14 0 -48 47
-57 78 -15 54 -20 332 -8 502 6 96 13 211 16 255 5 100 40 383 60 493 8 45 17
101 19 125 16 203 112 539 196 688 60 108 135 225 148 234 5 3 7 29 4 58 -5
50 -3 55 50 134 32 48 57 98 60 120 13 76 126 325 169 370 57 60 172 150 220
173 26 12 51 27 56 33 17 23 155 342 222 516 37 97 98 241 135 321 37 80 75
165 84 190 44 114 161 351 238 480 33 56 62 88 113 128 65 51 69 56 85 120 31
127 46 171 67 197 23 29 19 29 213 10z m1000 -924 c3 -5 0 -13 -6 -17 -7 -4
-9 -3 -5 4 3 5 0 13 -6 15 -9 4 -10 6 -1 6 6 1 14 -3 18 -8z m30 -91 c20 -23
99 -297 111 -385 21 -155 186 -543 272 -639 10 -11 34 -47 51 -79 18 -32 64
-99 103 -150 38 -51 81 -114 95 -142 14 -27 55 -94 90 -149 70 -108 142 -245
167 -319 29 -85 215 -434 310 -580 74 -114 172 -387 190 -532 3 -22 10 -69 15
-105 15 -98 29 -199 52 -370 12 -85 23 -164 25 -175 58 -339 59 -403 8 -464
-25 -30 -71 -54 -79 -41 -9 15 -27 12 -20 -2 4 -7 1 -6 -7 3 -7 9 -19 14 -27
11 -7 -2 -23 7 -36 22 -12 14 -29 26 -37 26 -8 0 -31 31 -52 70 -20 38 -71
118 -113 177 -187 263 -258 360 -282 381 -14 13 -42 38 -63 56 l-36 33 -4 -28
c-3 -17 0 -26 6 -22 5 4 7 0 3 -10 -4 -11 -2 -14 9 -10 7 3 14 0 14 -6 0 -7
11 -22 23 -34 13 -12 22 -28 19 -35 -2 -8 10 -27 27 -44 17 -17 31 -33 31 -37
1 -3 3 -30 5 -60 3 -46 1 -54 -15 -58 -11 -3 -17 -9 -14 -15 7 -11 -15 -40
-26 -33 -5 3 -11 1 -15 -5 -12 -19 26 -23 40 -4 13 18 14 18 21 -1 5 -11 17
-27 28 -36 21 -17 16 -55 -7 -46 -47 17 -56 17 -60 0 -4 -16 -5 -16 -6 -1 0 9
6 24 15 32 14 15 14 16 -5 16 -11 0 -27 7 -36 16 -12 13 -19 14 -30 4 -12 -10
-15 -10 -15 1 0 11 -2 11 -10 -1 -9 -13 -10 -13 -10 0 -1 12 -3 11 -11 -2 -5
-10 -16 -18 -24 -18 -11 0 -12 -6 -5 -24 5 -14 5 -26 0 -28 -4 -2 -2 -9 6 -16
12 -10 14 -10 14 2 0 8 5 18 12 22 7 5 8 3 3 -6 -5 -9 -2 -10 14 -5 14 4 21 2
21 -7 0 -10 3 -9 10 2 8 12 10 12 11 -5 0 -11 3 -14 6 -8 3 10 8 9 20 -2 12
-13 12 -17 1 -28 -21 -19 -38 -19 -32 1 4 13 2 12 -13 -4 -13 -15 -24 -19 -34
-14 -9 5 -28 2 -49 -8 -34 -16 -34 -17 -10 -21 14 -1 28 -8 32 -15 5 -7 8 -5
8 6 0 9 -6 19 -12 21 -8 3 -6 6 5 6 15 1 22 -10 18 -32 -1 -5 3 -6 9 -2 6 3 7
12 4 18 -5 9 -3 9 6 0 11 -10 11 -15 0 -28 -10 -12 -10 -15 4 -15 9 0 19 7 22
15 5 11 10 9 27 -10 l22 -24 23 25 c12 13 18 24 12 24 -5 0 -10 4 -10 10 0 19
25 5 38 -21 7 -15 24 -31 38 -37 31 -15 31 -32 -1 -32 -14 0 -25 -5 -25 -11 0
-5 -5 -7 -10 -4 -6 4 -7 11 -4 17 4 6 -2 6 -15 -1 -11 -7 -21 -16 -21 -22 0
-6 4 -7 10 -4 6 3 10 1 10 -5 0 -7 -7 -10 -15 -7 -8 4 -17 1 -21 -5 -4 -7 -9
-6 -15 3 -7 11 -9 10 -9 -4 0 -10 -4 -16 -8 -13 -4 2 -14 1 -22 -5 -13 -7 -13
-9 0 -9 13 0 13 -1 0 -10 -12 -8 -9 -10 12 -10 22 0 26 4 21 17 -5 13 -2 15
11 10 10 -4 15 -3 11 3 -7 12 -3 12 19 4 9 -3 13 -11 9 -18 -3 -6 -1 -6 8 1
16 16 39 17 39 2 0 -5 -6 -7 -12 -3 -7 4 -4 -2 6 -14 12 -14 15 -22 6 -22 -6
0 -10 -6 -7 -13 3 -8 1 -20 -4 -28 -10 -17 -49 -21 -49 -5 0 6 -8 2 -17 -9
l-16 -20 8 20 c4 11 9 29 12 40 4 20 4 20 -11 1 -9 -11 -16 -16 -16 -11 0 4
-8 1 -17 -7 -10 -9 -27 -18 -38 -20 -11 -2 -20 -10 -21 -18 -2 -34 -5 -40 -15
-40 -6 0 -9 7 -5 15 3 8 1 15 -4 15 -6 0 -10 -5 -10 -11 0 -8 -5 -8 -15 1 -12
10 -15 10 -15 0 0 -9 -4 -9 -12 -2 -13 9 -71 9 -115 -2 -18 -4 -23 0 -23 14 0
10 -5 22 -10 25 -7 4 -9 -3 -6 -20 5 -25 4 -26 -12 -13 -16 14 -53 31 -61 28
-2 -1 -8 4 -12 12 -7 10 -9 10 -9 -2 -1 -8 -7 0 -15 18 -9 20 -19 31 -26 26
-8 -4 -7 -9 2 -15 11 -7 11 -9 1 -9 -7 0 -15 6 -17 13 -24 68 -25 69 -40 57
-26 -22 -72 -3 -120 47 -25 26 -51 63 -57 81 -7 17 -16 32 -20 32 -14 0 -9 51
7 66 13 14 18 13 45 -6 36 -26 131 -43 143 -26 5 8 11 6 21 -6 7 -10 16 -15
19 -11 4 3 7 -1 7 -10 0 -9 3 -16 8 -15 15 3 62 -22 62 -34 0 -9 3 -9 11 -1 9
9 15 8 26 -3 11 -10 19 -11 34 -4 10 6 19 7 19 2 0 -5 12 -7 26 -4 16 3 30 -1
35 -9 7 -11 9 -10 9 4 0 10 -8 17 -20 17 -13 0 -18 5 -14 15 4 8 2 15 -4 15
-6 0 -12 -6 -15 -12 -3 -8 -8 -6 -13 7 -13 32 -36 45 -79 43 -23 -1 -47 2 -55
7 -16 10 -28 13 -69 19 -14 2 -30 11 -36 20 -7 9 -21 16 -31 16 -22 1 -54 23
-54 37 0 6 -12 16 -28 22 -15 6 -32 22 -37 34 -6 12 -20 26 -32 32 -13 5 -24
19 -25 30 -1 11 -3 34 -4 50 -7 88 -19 135 -33 135 -4 0 -16 6 -26 14 -16 12
-17 16 -6 30 7 9 11 16 8 16 -3 0 -2 13 3 29 6 23 5 31 -7 35 -13 6 -13 9 1
31 19 28 21 71 4 81 -16 10 -36 -22 -44 -72 -3 -24 -11 -44 -16 -44 -5 0 -6
-5 -3 -10 4 -6 1 -27 -6 -48 -7 -20 -13 -43 -13 -50 -1 -7 -7 -17 -15 -22 -11
-6 -12 -12 -4 -22 15 -19 21 -54 24 -133 3 -73 14 -135 31 -171 5 -12 13 -37
17 -55 4 -21 16 -38 30 -46 13 -6 30 -25 37 -43 7 -17 28 -43 46 -58 18 -15
53 -46 78 -69 80 -74 88 -81 129 -104 22 -12 38 -26 35 -31 -3 -4 0 -8 5 -8 6
0 11 -4 11 -10 0 -5 -9 -10 -20 -10 -11 0 -23 -6 -26 -14 -3 -8 -12 -12 -20
-9 -8 3 -21 0 -29 -7 -13 -11 -18 -10 -28 3 -7 9 -19 17 -27 19 -8 2 -20 9
-26 17 -10 12 -15 11 -37 -11 -18 -18 -27 -22 -31 -13 -4 11 -19 16 -93 31 -7
1 -13 -1 -13 -5 0 -4 -11 -13 -25 -19 -14 -6 -25 -8 -25 -4 0 10 -41 13 -55 4
-25 -19 -73 -13 -101 13 -20 19 -30 22 -35 13 -4 -7 -10 -10 -12 -8 -34 42
-159 263 -239 420 -48 94 -103 268 -123 384 -32 192 -15 620 29 720 8 17 21
49 29 71 l15 40 12 -45 c22 -80 19 -75 38 -57 13 14 14 21 5 36 -17 28 -1 31
79 14 64 -13 70 -12 108 7 39 20 40 22 40 71 0 31 4 48 10 44 6 -3 10 -15 10
-26 0 -10 4 -19 10 -19 11 0 30 -64 30 -102 0 -30 20 -37 38 -15 14 16 5 58
-16 74 -17 14 -25 93 -9 93 6 0 7 3 4 6 -3 4 -1 16 4 27 11 19 9 20 -34 15
l-46 -5 -6 61 c-5 48 -1 1775 4 1796 1 3 5 -1 10 -9 8 -12 12 -12 26 2 9 10
13 17 9 17 -4 0 1 8 10 19 9 10 16 22 15 27 -2 15 13 54 21 54 4 0 11 26 14
58 13 106 18 128 26 107 4 -11 11 -49 15 -84 8 -72 19 -66 30 19 4 30 15 71
25 90 9 19 22 70 29 112 6 43 12 81 13 85 1 4 -2 23 -6 41 -6 25 -4 38 8 50
12 14 13 26 6 57 -5 22 -9 47 -9 55 1 8 4 6 6 -5 3 -11 11 -27 18 -35z m-45
-10 c0 -5 -2 -10 -4 -10 -3 0 -8 5 -11 10 -3 6 -1 10 4 10 6 0 11 -4 11 -10z
m20 -20 c0 -5 -5 -10 -11 -10 -5 0 -7 5 -4 10 3 6 8 10 11 10 2 0 4 -4 4 -10z
m-777 -2017 c-7 -2 -13 -13 -13 -24 0 -10 -4 -19 -10 -19 -11 0 -14 33 -3 43
3 4 13 7 22 6 10 0 12 -2 4 -6z m-14 -82 c-11 -32 -36 -58 -45 -48 -3 3 -1 22
6 41 8 24 18 36 30 36 17 0 18 -4 9 -29z m-127 -48 c-6 -3 -9 -10 -5 -16 14
-23 11 -39 -8 -44 -15 -4 -17 -8 -8 -19 10 -12 9 -13 -5 -8 -18 7 -17 30 6 87
8 21 14 25 22 16 8 -8 8 -13 -2 -16z m75 -83 c-4 -52 -25 -90 -37 -70 -6 10 0
34 25 108 10 27 15 9 12 -38z m-183 -345 c-4 -8 -8 -15 -10 -15 -2 0 -4 7 -4
15 0 8 4 15 10 15 5 0 7 -7 4 -15z m12 -210 c14 -13 14 -15 0 -15 -9 0 -16 6
-16 13 0 8 -4 7 -10 -3 -5 -8 -10 -10 -10 -4 0 11 10 24 17 24 3 0 11 -7 19
-15z m-613 -890 c4 -8 2 -17 -3 -20 -6 -4 -10 3 -10 14 0 25 6 27 13 6z m2517
-147 c0 -5 -9 -18 -20 -30 -21 -22 -24 -18 -14 18 5 20 34 30 34 12z m-3387
-62 c12 12 -6 -41 -19 -56 -8 -9 -11 -26 -7 -40 4 -17 2 -22 -5 -15 -5 6 -12
19 -15 30 -4 15 -5 13 -6 -7 0 -16 -6 -28 -12 -28 -6 0 -9 6 -6 13 3 7 -4 19
-15 26 -19 12 -19 13 -1 26 10 8 13 15 6 15 -7 0 -10 6 -7 14 3 7 13 13 22 12
9 0 16 4 15 11 -2 8 4 10 14 6 12 -5 14 -3 9 8 -4 8 -1 6 7 -3 8 -10 17 -15
20 -12z m3349 0 c6 4 5 -3 -1 -15 -7 -12 -9 -25 -7 -30 3 -5 0 -11 -8 -14 -10
-4 -18 4 -25 24 -8 23 -7 29 5 29 7 0 14 6 15 13 0 9 2 9 6 -1 2 -6 9 -9 15
-6z m-3264 -120 c-12 -55 -22 -62 -46 -35 -25 27 -14 60 18 54 19 -4 24 4 21
35 -2 12 0 12 7 1 6 -8 6 -29 0 -55z m-178 14 c0 -5 -5 -10 -11 -10 -5 0 -7 5
-4 10 3 6 8 10 11 10 2 0 4 -4 4 -10z m200 -55 c-7 -9 -15 -13 -19 -10 -3 3 1
10 9 15 21 14 24 12 10 -5z m-183 -11 c-3 -3 -12 -4 -19 -1 -8 3 -5 6 6 6 11
1 17 -2 13 -5z m950 -106 c-3 -7 -5 -2 -5 12 0 14 2 19 5 13 2 -7 2 -19 0 -25z
m2443 12 c0 -5 -5 -10 -11 -10 -5 0 -7 5 -4 10 3 6 8 10 11 10 2 0 4 -4 4 -10z
m130 -11 c0 8 2 12 5 9 3 -3 2 -13 -1 -22 -5 -14 -9 -15 -15 -4 -5 7 -9 18 -9
23 0 6 5 3 10 -5 8 -12 10 -12 10 -1z"/>
<path d="M2303 6188 c-2 -5 1 -8 6 -8 6 0 11 -6 11 -14 0 -11 -8 -13 -27 -10
-16 3 -35 5 -43 5 -47 -3 -60 -6 -64 -17 -6 -16 20 -38 34 -29 5 3 10 3 10 -2
0 -4 11 -13 25 -20 14 -6 23 -7 19 -2 -3 5 0 9 7 9 6 0 9 -8 6 -20 -3 -11 -1
-18 4 -14 5 3 9 12 9 19 0 8 10 17 23 19 93 19 153 28 172 27 90 -8 115 -10
140 -15 17 -3 48 -8 71 -10 100 -13 358 -118 371 -152 3 -8 11 -14 18 -14 18
0 27 -44 19 -95 -3 -24 -2 -45 4 -49 5 -3 12 20 15 53 4 32 11 70 16 84 9 24
12 25 46 14 29 -9 38 -8 45 3 11 18 4 30 -19 30 -10 0 -24 7 -31 15 -7 8 -20
15 -30 15 -9 0 -39 11 -66 25 -66 35 -277 105 -314 105 -16 0 -31 4 -34 9 -7
11 -148 32 -233 34 -33 1 -59 5 -56 10 2 4 0 7 -6 7 -5 0 -12 -4 -16 -10 -3
-5 -12 -7 -20 -4 -23 9 -106 10 -112 2z"/>
<path d="M3121 5764 c0 -11 3 -14 6 -6 3 7 2 16 -1 19 -3 4 -6 -2 -5 -13z"/>
<path d="M1206 3603 c-9 -9 -7 -56 4 -73 6 -10 9 -6 8 16 -1 17 2 36 6 42 7
12 -8 25 -18 15z"/>
<path d="M1209 3457 c2 -36 6 -46 12 -35 9 16 2 75 -10 82 -3 2 -4 -19 -2 -47z"/>
<path d="M1210 3383 c0 -5 5 -15 10 -23 8 -12 10 -11 10 8 0 12 -4 22 -10 22
-5 0 -10 -3 -10 -7z"/>
<path d="M1220 3331 c0 -13 29 -35 37 -28 7 8 -15 37 -28 37 -5 0 -9 -4 -9 -9z"/>
<path d="M1265 3238 c3 -15 0 -30 -5 -33 -7 -4 -8 -11 -2 -18 5 -7 17 -39 27
-72 9 -33 23 -72 31 -87 11 -20 11 -27 1 -31 -8 -3 -7 -10 7 -25 17 -20 17
-22 2 -28 -14 -5 -12 -10 13 -25 22 -13 29 -23 24 -35 -4 -11 1 -22 12 -30 18
-14 18 -14 -1 -15 -17 0 -17 -1 3 -9 37 -15 66 -110 67 -223 1 -82 3 -96 16
-91 16 7 42 12 75 13 19 2 19 2 2 15 -9 7 -15 20 -12 28 4 9 0 22 -7 29 -37
40 -52 84 -92 284 -13 60 -37 113 -102 215 -19 30 -32 60 -30 67 3 7 0 12 -7
10 -7 -1 -11 7 -9 19 1 11 -2 31 -8 45 -10 24 -10 24 -5 -3z"/>
<path d="M898 3050 c-21 -27 -38 -58 -38 -69 0 -12 -5 -21 -11 -21 -6 0 -8 -9
-4 -20 6 -18 3 -20 -19 -14 -19 4 -26 2 -26 -9 0 -8 7 -18 16 -21 8 -3 12 -2
9 4 -3 6 -1 10 4 10 6 0 12 -4 12 -10 2 -14 6 -30 9 -32 6 -7 6 -77 -1 -73 -4
3 -5 -4 -2 -15 3 -11 9 -17 14 -14 5 3 9 0 9 -6 0 -6 4 -9 9 -5 6 3 16 -1 23
-8 10 -11 18 -12 35 -4 13 6 23 13 23 17 0 9 65 4 81 -6 8 -5 11 -2 7 7 -4 10
2 14 17 14 13 0 23 -2 23 -5 -2 -29 19 -36 40 -13 7 7 9 13 5 13 -5 0 -9 9 -9
19 0 13 4 17 11 11 6 -5 20 -9 30 -8 11 1 30 -2 43 -6 17 -6 22 -4 22 11 1 16
3 16 19 -4 10 -12 21 -20 23 -17 3 3 16 -17 28 -43 31 -66 35 -207 6 -228 -15
-11 -22 -12 -40 -1 -12 7 -61 14 -111 15 -49 1 -91 6 -93 11 -2 5 -10 6 -18 3
-8 -3 -14 1 -14 8 -1 10 -5 9 -14 -4 -8 -10 -20 -15 -30 -11 -11 4 -16 1 -16
-10 0 -9 -4 -16 -10 -16 -5 0 -7 7 -4 15 10 25 -5 17 -20 -12 l-15 -28 -1 24
c0 19 -3 22 -12 13 -7 -7 -17 -8 -28 -2 -21 11 -81 10 -74 -1 3 -5 -2 -6 -10
-3 -10 4 -16 1 -16 -9 0 -9 -14 -31 -31 -49 -18 -18 -29 -27 -25 -20 16 28
-11 8 -32 -24 -21 -34 -21 -36 -3 -41 12 -3 17 -11 14 -22 -3 -11 1 -18 11
-18 9 0 16 5 16 10 0 5 6 4 13 -2 8 -6 17 -8 20 -4 4 3 7 0 7 -8 0 -8 7 -4 16
9 9 13 22 21 30 18 15 -6 53 11 66 28 4 6 13 4 22 -4 14 -11 16 -10 10 3 -4
12 -1 14 14 10 19 -4 62 10 122 42 45 23 111 28 153 10 26 -11 37 -21 33 -30
-10 -26 11 -25 36 3 14 15 38 48 53 75 15 26 36 54 47 61 15 11 20 27 21 74 2
52 -2 65 -29 103 -18 24 -39 60 -47 81 -8 20 -39 60 -67 89 -29 30 -61 73 -71
95 -9 23 -22 45 -28 48 -17 11 -13 -23 4 -40 19 -19 19 -43 1 -50 -14 -5 -77
31 -84 49 -2 4 -11 7 -19 7 -8 0 -31 17 -49 37 -19 20 -34 31 -34 25 0 -10 -3
-10 -14 0 -8 7 -12 16 -10 20 2 4 1 9 -3 11 -5 3 -25 -17 -45 -43z"/>
<path d="M785 2840 c3 -5 10 -10 16 -10 5 0 9 5 9 10 0 6 -7 10 -16 10 -8 0
-12 -4 -9 -10z"/>
<path d="M2232 2550 c0 -14 2 -19 5 -12 2 6 2 18 0 25 -3 6 -5 1 -5 -13z"/>
<path d="M1647 2544 c-8 -8 3 -34 14 -34 11 0 12 27 0 34 -4 3 -11 3 -14 0z"/>
<path d="M1355 2399 c-4 -6 -5 -12 -2 -15 2 -3 7 2 10 11 7 17 1 20 -8 4z"/>
<path d="M1470 1700 c0 -5 5 -10 10 -10 6 0 10 5 10 10 0 6 -4 10 -10 10 -5 0
-10 -4 -10 -10z"/>
<path d="M1010 1464 c0 -12 4 -12 20 -4 11 6 20 12 20 13 0 2 -9 3 -20 4 -12
1 -20 -4 -20 -13z"/>
<path d="M1345 1270 c-4 -6 -10 -8 -15 -5 -5 3 -11 1 -15 -5 -3 -5 -1 -10 5
-10 6 0 8 -5 5 -10 -4 -6 -11 -8 -16 -5 -15 10 -10 -12 6 -25 12 -10 21 -10
41 -1 23 10 24 12 9 27 -9 9 -14 23 -11 30 6 16 0 19 -9 4z"/>
<path d="M1770 1173 c8 -3 19 -11 23 -17 6 -7 7 -6 4 4 -2 8 -12 16 -23 17
-13 2 -15 1 -4 -4z"/>
<path d="M3579 3105 c-1 -27 -3 -59 -5 -70 -1 -11 -7 -50 -11 -87 -5 -37 -17
-76 -26 -86 -9 -10 -28 -44 -42 -76 -32 -73 -28 -111 4 -43 13 26 27 47 32 47
5 0 8 3 8 8 -5 28 5 42 39 53 53 17 53 17 38 53 -7 18 -14 72 -15 125 -1 102
-19 164 -22 76z"/>
<path d="M3341 2821 c-24 -18 -22 -41 4 -41 19 0 25 -23 25 -93 0 -73 8 -109
24 -104 15 5 19 76 11 175 -7 90 -17 99 -64 63z"/>
<path d="M3288 2803 c7 -3 16 -2 19 1 4 3 -2 6 -13 5 -11 0 -14 -3 -6 -6z"/>
<path d="M3475 2581 c-2 -5 7 -19 21 -32 21 -20 27 -21 34 -9 5 8 10 17 10 20
0 10 -60 29 -65 21z"/>
<path d="M3605 2559 c-14 -5 -15 -8 -5 -9 8 -1 28 -4 43 -6 16 -3 26 -1 23 4
-9 14 -39 20 -61 11z"/>
<path d="M4063 1895 c0 -8 4 -12 9 -9 5 3 6 10 3 15 -9 13 -12 11 -12 -6z"/>
<path d="M3055 1810 c3 -5 1 -10 -6 -10 -8 0 -8 -4 1 -15 7 -8 18 -15 25 -15
6 0 12 7 12 15 0 8 -4 15 -9 15 -5 0 -6 5 -3 10 3 6 -1 10 -10 10 -9 0 -13 -4
-10 -10z"/>
<path d="M3110 1759 c0 -5 5 -7 10 -4 6 3 10 8 10 11 0 2 -4 4 -10 4 -5 0 -10
-5 -10 -11z"/>
<path d="M3060 1734 c0 -8 5 -12 10 -9 6 3 10 10 10 16 0 5 -4 9 -10 9 -5 0
-10 -7 -10 -16z"/>
<path d="M3911 1324 c0 -11 3 -14 6 -6 3 7 2 16 -1 19 -3 4 -6 -2 -5 -13z"/>
<path d="M3940 1303 c0 -25 38 -49 54 -33 8 8 7 13 -3 19 -11 7 -11 9 0 14 10
4 9 6 -3 6 -9 1 -23 4 -32 7 -11 4 -16 0 -16 -13z"/>
<path d="M4042 1301 c-11 -6 -10 -10 4 -15 20 -8 32 0 18 14 -5 5 -15 5 -22 1z"/>
<path d="M4208 1303 c7 -3 16 -2 19 1 4 3 -2 6 -13 5 -11 0 -14 -3 -6 -6z"/>
<path d="M4010 1264 c0 -8 4 -13 9 -10 5 3 12 -2 15 -11 4 -9 1 -20 -6 -24 -7
-4 -9 -11 -5 -16 10 -10 28 18 22 34 -2 7 2 10 11 6 8 -3 14 1 14 11 0 9 -3
16 -7 17 -5 0 -18 2 -30 5 -16 3 -23 -1 -23 -12z"/>
<path d="M4132 1266 c7 -8 15 -12 17 -11 5 6 -10 25 -20 25 -5 0 -4 -6 3 -14z"/>
<path d="M4066 1191 c-3 -5 1 -11 9 -14 9 -4 12 -1 8 9 -6 16 -10 17 -17 5z"/>
<path d="M3730 1151 c0 -5 5 -13 10 -16 6 -3 10 -2 10 4 0 5 -4 13 -10 16 -5
3 -10 2 -10 -4z"/>
<path d="M4178 1153 c7 -3 16 -2 19 1 4 3 -2 6 -13 5 -11 0 -14 -3 -6 -6z"/>
<path d="M3985 1080 c-3 -5 -1 -10 4 -10 6 0 11 5 11 10 0 6 -2 10 -4 10 -3 0
-8 -4 -11 -10z"/>
</g>
</svg>
